<svg width="129" height="26" viewBox="0 0 129 26" fill="none" xmlns="http://www.w3.org/2000/svg">
<g clip-path="url(#clip0_1394_19640)">
<mask id="mask0_1394_19640" style="mask-type:luminance" maskUnits="userSpaceOnUse" x="0" y="0" width="129" height="26">
<path d="M128.981 0.00119019H0.497559V25.2391H128.981V0.00119019Z" fill="white"/>
</mask>
<g mask="url(#mask0_1394_19640)">
<path fill-rule="evenodd" clip-rule="evenodd" d="M15.1163 8.88316L14.7026 8.73508L3.8381 4.86936L8.93978 2.99538L9.1679 3.07513L9.59511 3.22892L15.126 5.19402L19.6187 6.78513L20.0382 6.93322L20.3011 7.02622L15.5261 8.73508L15.1163 8.88316ZM12.3055 4.82949L11.2112 4.3833L9.90058 4.83897L10.9947 5.28706L12.3055 4.82949ZM11.3389 6.10731L10.438 5.73894L9.36313 6.1149L10.2601 6.48701L11.3389 6.10731ZM13.6587 5.72756L12.7578 5.35923L11.6791 5.73894L12.58 6.10731L13.6587 5.72756ZM10.1151 3.90864L9.19688 3.5384L8.13367 3.91434L9.04996 4.28837L10.1151 3.90864ZM8.13175 4.45356L6.25846 5.101L7.82049 5.73894L9.69372 5.08962L8.13175 4.45356ZM6.07094 2.36503L7.10709 2.02327L7.97898 2.37262L6.94089 2.71628L6.07094 2.36503ZM4.05075 2.85488L2.65113 2.29098L4.32141 1.74226L5.72102 2.30427L4.05075 2.85488ZM2.57187 2.85108L3.79364 3.34284L2.33602 3.8232L1.11424 3.33145L2.57187 2.85108ZM1.70773 1.33026L2.72265 1.73847L1.51248 2.13719L0.497559 1.72898L1.70773 1.33026ZM4.30978 0.587876L4.97868 0.857486L4.18221 1.1195L3.51526 0.851789L4.30978 0.587876ZM1.79279 0.00119019L2.45974 0.268902L1.6652 0.532816L0.996319 0.263206L1.79279 0.00119019ZM75.9497 21.0613C72.9432 21.0613 71.3737 19.0696 71.3737 16.3791V14.8602C71.3737 12.1698 72.9432 10.1762 75.9497 10.1762C78.9562 10.1762 80.5314 12.166 80.5314 14.8564V16.3753C80.5314 19.0696 78.9562 21.0613 75.9497 21.0613ZM77.999 14.8564C77.999 13.3128 77.291 12.316 75.9497 12.316C74.6083 12.316 73.9004 13.3128 73.9004 14.8564V16.3753C73.9004 17.9171 74.6096 18.9138 75.9497 18.9138C77.2891 18.9138 77.999 17.9171 77.999 16.3753V14.8564ZM87.0558 21.0613C86.441 21.0565 85.8269 21.0127 85.2172 20.9302V24.2605C85.2172 24.3612 85.1767 24.4578 85.1041 24.529C85.0315 24.6002 84.9333 24.6402 84.8311 24.6402H83.0696C82.9675 24.6402 82.8685 24.6002 82.7966 24.529C82.7233 24.4578 82.6829 24.3612 82.6829 24.2605V11.1692C82.6829 10.8882 82.76 10.7743 83.2013 10.6622C84.4592 10.3487 85.7517 10.1842 87.05 10.1724C90.1317 10.1724 91.626 11.959 91.626 14.8925V16.3411C91.6318 19.2746 90.1375 21.0613 87.0558 21.0613ZM89.1032 14.8925C89.1032 13.3508 88.7011 12.204 87.0558 12.204C86.4404 12.1983 85.8256 12.2421 85.2172 12.3349V18.8986C85.8269 18.978 86.441 19.0224 87.0558 19.0316C88.7011 19.0316 89.1032 17.8924 89.1032 16.3411V14.8925ZM102.183 16.4741H95.9385V16.5291C95.9385 17.6209 96.3992 18.9176 98.2371 18.9176C99.635 18.9176 100.956 18.8056 101.76 18.7278H101.818C102.011 18.7278 102.162 18.8227 102.162 19.0107V20.2524C102.162 20.5524 102.106 20.6834 101.76 20.7404C100.538 20.98 99.292 21.0869 98.0463 21.0594C96.1306 21.0594 93.4068 20.0455 93.4068 16.3393V14.9494C93.4068 12.016 95.0732 10.1724 98.0033 10.1724C100.934 10.1724 102.57 12.1527 102.57 14.9494V16.0032C102.57 16.3032 102.45 16.4741 102.183 16.4741ZM100.018 14.6305C100.018 13.1628 99.1943 12.316 98.0078 12.316C96.8206 12.316 95.9585 13.1438 95.9585 14.6305V14.7045H100.018V14.6305ZM112.769 20.5733C111.51 20.8853 110.218 21.0491 108.921 21.0613C105.827 21.0613 104.345 19.2746 104.345 16.3411V14.8925C104.345 11.959 105.837 10.1724 108.921 10.1724C109.535 10.178 110.149 10.2224 110.759 10.3053V6.97505C110.759 6.87435 110.8 6.77775 110.872 6.70652C110.945 6.63535 111.042 6.59535 111.145 6.59535H112.906C113.009 6.59535 113.107 6.63535 113.18 6.70652C113.252 6.77775 113.293 6.87435 113.293 6.97505V20.0758C113.287 20.3473 113.202 20.4613 112.769 20.5733ZM110.759 12.3426C110.149 12.2647 109.535 12.221 108.921 12.2115C107.273 12.2115 106.871 13.3508 106.871 14.9001V16.3487C106.871 17.8905 107.273 19.0391 108.921 19.0391C109.536 19.0453 110.151 19.0008 110.759 18.9063V12.3426ZM118.035 8.89458H116.177C116.073 8.89471 115.973 8.85515 115.898 8.78435C115.823 8.71356 115.78 8.61696 115.775 8.51488V6.86306C115.779 6.76078 115.823 6.66387 115.898 6.59301C115.973 6.52209 116.073 6.48278 116.177 6.48329H118.035C118.138 6.48329 118.236 6.52329 118.309 6.59453C118.381 6.6657 118.422 6.76229 118.422 6.86306V8.51866C118.421 8.61867 118.38 8.71432 118.307 8.78467C118.235 8.85515 118.137 8.89458 118.035 8.89458ZM117.977 20.9112H116.214C116.11 20.9078 116.012 20.8646 115.939 20.7908C115.867 20.7171 115.827 20.6187 115.827 20.5163V10.6812C115.827 10.5805 115.868 10.4839 115.941 10.4128C116.013 10.3415 116.111 10.3015 116.214 10.3015H117.977C118.08 10.3015 118.178 10.3415 118.25 10.4128C118.323 10.4839 118.364 10.5805 118.364 10.6812V20.5163C118.364 20.6187 118.324 20.7171 118.252 20.7908C118.18 20.8646 118.081 20.9078 117.977 20.9112ZM128.527 20.9112H126.899C126.796 20.9112 126.698 20.8713 126.626 20.8001C126.553 20.7288 126.512 20.6322 126.512 20.5315V20.2315C125.706 20.7481 124.768 21.0341 123.805 21.0574C122.217 21.0574 120.494 20.4574 120.494 17.9171V17.8487C120.494 15.7032 121.834 14.5944 125.167 14.5944H126.373V13.7647C126.373 12.542 125.818 12.2457 124.687 12.2457C123.645 12.2425 122.604 12.2925 121.567 12.3958H121.471C121.277 12.3958 121.127 12.3387 121.127 12.0768V10.8692C121.127 10.6622 121.24 10.5294 121.49 10.4743C122.543 10.2711 123.614 10.17 124.687 10.1724C127.407 10.1724 128.9 11.3572 128.9 13.7647V20.5353C128.899 20.6331 128.859 20.7267 128.79 20.7968C128.721 20.8668 128.626 20.9078 128.527 20.9112ZM126.383 16.2481H125.176C123.437 16.2481 123.05 16.793 123.05 17.8468V17.9208C123.05 18.8436 123.471 19.0866 124.428 19.0866C125.113 19.0714 125.785 18.8907 126.383 18.5607V16.2481ZM15.9475 9.1756L15.5261 9.32558V24.8396L20.6335 22.0447V12.9027L26.2726 10.892L26.7482 10.7211L26.783 5.32319L15.9475 9.1756ZM20.4518 6.4966L20.8617 6.64279L21.1323 6.73964L26.3905 4.86941L21.2889 2.99355L20.6335 3.22898L15.9572 4.89791L20.0381 6.35035L20.4518 6.4966ZM38.326 20.9302C37.8968 21.0095 37.4616 21.0534 37.025 21.0612C34.8617 21.0612 33.9802 20.5923 33.9802 18.0727V12.1659L32.1804 11.9039C32.08 11.8976 31.9853 11.8557 31.9141 11.7858C31.8429 11.7159 31.8001 11.6229 31.7938 11.5242V10.6812C31.7938 10.5805 31.8345 10.4839 31.907 10.4127C31.9795 10.3415 32.0779 10.3015 32.1804 10.3015H33.9802V8.76164C33.9862 8.66283 34.0288 8.56964 34.1001 8.49967C34.1714 8.4297 34.2663 8.3878 34.3669 8.38194L36.1473 8.08192H36.2246C36.2642 8.07744 36.3043 8.08154 36.342 8.09385C36.3799 8.10609 36.4145 8.12628 36.4435 8.15303C36.4726 8.17972 36.4954 8.2124 36.5103 8.24862C36.5253 8.2849 36.532 8.32389 36.5301 8.36294V10.3053H38.2545C38.357 10.3053 38.4553 10.3453 38.5279 10.4165C38.6004 10.4877 38.6411 10.5843 38.6411 10.685V11.7938C38.6411 11.8945 38.6004 11.9911 38.5279 12.0623C38.4553 12.1335 38.357 12.1736 38.2545 12.1736H36.5301V18.0727C36.5301 19.0125 36.588 19.1246 37.2782 19.1246H38.2931C38.5425 19.1246 38.6952 19.2195 38.6952 19.4075V20.5923C38.6914 20.7802 38.5812 20.8866 38.326 20.9302ZM48.8582 16.474H42.6159V16.5291C42.6159 17.6208 43.0737 18.9176 44.9143 18.9176C46.312 18.9176 47.6324 18.8056 48.4365 18.7278H48.4945C48.688 18.7278 48.8385 18.8227 48.8385 19.0106V20.2524C48.8385 20.5524 48.7806 20.6834 48.4365 20.7404C47.2136 20.98 45.9676 21.0869 44.7208 21.0593C42.807 21.0593 40.0814 20.0454 40.0814 16.3393V14.9494C40.0814 12.0159 41.7475 10.1724 44.6784 10.1724C47.6094 10.1724 49.2408 12.1527 49.2408 14.9494V16.0031C49.2408 16.3032 49.1266 16.474 48.8582 16.474ZM46.7007 14.6304C46.7007 13.1628 45.8772 12.316 44.69 12.316C43.5031 12.316 42.641 13.1438 42.641 14.6304V14.7045H46.7007V14.6304ZM57.8571 20.8182C57.0459 20.9941 56.2166 21.0757 55.3865 21.0612C52.8966 21.0612 51.0194 19.5575 51.0194 16.4911V14.7425C51.0194 11.678 52.8966 10.1724 55.3865 10.1724C56.217 10.1582 57.0463 10.2404 57.8571 10.4173C58.1818 10.4932 58.259 10.6072 58.259 10.9052V12.128C58.259 12.3178 58.1062 12.4109 57.915 12.4109H57.8571C57.0381 12.306 56.2121 12.2622 55.3865 12.2799C54.4853 12.2799 53.5479 12.7868 53.5479 14.7481V16.4969C53.5479 18.4543 54.4853 18.9651 55.3865 18.9651C56.2121 18.9817 57.0377 18.9379 57.8571 18.8341H57.915C58.1082 18.8341 58.259 18.9271 58.259 19.1151V20.3378C58.259 20.6302 58.1818 20.7423 57.8571 20.8182ZM68.8278 20.9112H67.0669C66.9622 20.9078 66.8639 20.8646 66.792 20.7908C66.7194 20.7171 66.6796 20.6186 66.6802 20.5163V14.3286C66.6802 12.6938 66.3924 12.2799 65.1082 12.2799C64.459 12.2799 63.6914 12.5058 62.8871 12.9178V20.5125C62.8875 20.6148 62.8477 20.7133 62.7753 20.7871C62.7034 20.8607 62.6048 20.904 62.5004 20.9074H60.7395C60.6351 20.904 60.5365 20.8607 60.4645 20.7871C60.3923 20.7133 60.352 20.6148 60.3528 20.5125V6.97499C60.3528 6.87429 60.3935 6.77775 60.4658 6.70652C60.5386 6.63528 60.6368 6.59528 60.7395 6.59528H62.5004C62.6032 6.59528 62.7014 6.63528 62.7737 6.70652C62.8464 6.77775 62.8871 6.87429 62.8871 6.97499V10.8692C63.6161 10.4363 64.4199 10.1724 65.7866 10.1724C68.4295 10.1724 69.2146 12.0159 69.2146 14.3286V20.5163C69.2152 20.6186 69.1747 20.7171 69.1028 20.7908C69.0302 20.8646 68.9319 20.9078 68.8278 20.9112ZM14.2822 9.1756L14.7036 9.32558V24.8377L9.5962 22.0447V7.51047L14.2822 9.1756ZM8.77076 7.21796L3.44482 5.32308L3.47961 10.721L3.95517 10.8918L8.77076 12.6102V7.21796Z" fill="black"/>
</g>
</g>
<defs>
<clipPath id="clip0_1394_19640">
<rect width="128.484" height="25.2379" fill="white" transform="translate(0.49707)"/>
</clipPath>
</defs>
</svg>
