<svg width="146" height="26" viewBox="0 0 146 26" fill="none" xmlns="http://www.w3.org/2000/svg">
<path d="M23.2296 14.9532C22.8068 15.2051 22.3134 15.251 21.9375 15.0448C21.4677 14.77 21.1858 14.1516 21.1858 13.3042V10.7163C21.1858 9.47953 20.6924 8.58633 19.8467 8.3573C18.4136 7.94506 17.3329 9.66274 16.9335 10.304L14.3963 14.2661V9.38791C14.3728 8.26569 13.9969 7.60153 13.2921 7.3954C12.8223 7.25799 12.1175 7.3267 11.4362 8.33441L5.77441 17.1748C5.02264 15.7777 4.62326 14.2203 4.62326 12.6401C4.62326 7.30379 9.01644 2.97522 14.3963 2.97522C19.7762 2.97522 24.1694 7.30379 24.1694 12.6401V12.663V12.6859C24.2164 13.7165 23.8875 14.541 23.2296 14.9532ZM26.3307 12.6401V12.6172V12.5943C26.3072 6.11286 20.9508 0.822388 14.3963 0.822388C7.8183 0.822388 2.46191 6.11286 2.46191 12.6401C2.46191 19.1444 7.8183 24.4578 14.3963 24.4578C17.4269 24.4578 20.293 23.3355 22.5014 21.2972C22.9477 20.885 22.9712 20.2208 22.5484 19.7856C22.149 19.3505 21.4677 19.3276 21.0213 19.7169C21.0213 19.7169 21.0213 19.7169 20.9978 19.7398C19.2124 21.3888 16.8161 22.3278 14.3493 22.3278C11.4597 22.3278 8.87548 21.0911 7.09002 19.1215L12.188 11.1514V14.8387C12.188 16.6022 12.8928 17.1748 13.4801 17.3351C14.0674 17.4954 14.9601 17.3809 15.9234 15.8922L18.719 11.472C18.813 11.3346 18.8835 11.1972 18.9774 11.1056V13.35C18.9774 14.999 19.6587 16.3274 20.8334 16.9686C21.8906 17.5641 23.2297 17.4954 24.3338 16.8312C25.6964 15.9609 26.4247 14.4494 26.3307 12.6401ZM42.9637 8.60923C43.2456 8.76955 43.504 9.15889 43.504 9.50243C43.504 10.0521 43.0342 10.5101 42.4938 10.5101C42.3529 10.5101 42.2354 10.4643 42.118 10.4414C41.4836 9.98338 40.6849 9.68565 39.8391 9.68565C37.8422 9.68565 36.4797 11.2659 36.4797 13.2355C36.4797 15.2051 37.8657 16.7625 39.8391 16.7625C40.8258 16.7625 41.7186 16.3732 42.3764 15.7548C42.5408 15.6403 42.7523 15.5716 42.9637 15.5716C43.504 15.5716 43.9269 15.9838 43.9269 16.5106C43.9269 16.8541 43.7155 17.1519 43.4571 17.3122C42.4938 18.1138 41.2017 18.6405 39.8626 18.6405C36.8086 18.6405 34.3183 16.19 34.3183 13.1668C34.3183 10.1437 36.8086 7.69313 39.8626 7.69313C40.9903 7.67023 42.071 8.01377 42.9637 8.60923ZM48.555 10.8995C50.6459 10.8995 52.3844 12.6172 52.3844 14.7471C52.3844 16.8541 50.6224 18.6634 48.555 18.6634C46.3702 18.6634 44.5612 16.877 44.5612 14.7471C44.5612 12.6172 46.3702 10.8995 48.555 10.8995ZM48.5315 16.7625C49.4477 16.7625 50.223 15.9151 50.223 14.77C50.223 13.6249 49.4477 12.892 48.5315 12.892C47.5448 12.892 46.7226 13.602 46.7226 14.77C46.7226 15.8922 47.5448 16.7625 48.5315 16.7625ZM53.7 17.4725V12.0675C53.7 11.472 54.1698 10.9911 54.7806 10.9911C55.368 10.9911 55.8613 11.472 55.8613 12.0675V17.4725C55.8613 18.068 55.368 18.5489 54.7806 18.5489C54.1933 18.5489 53.7 18.0451 53.7 17.4725ZM53.5355 8.95277C53.5355 8.24279 54.0993 7.69313 54.7806 7.69313C55.4854 7.69313 56.0493 8.26569 56.0493 8.95277C56.0493 9.63984 55.4854 10.1895 54.7806 10.1895C54.0758 10.1666 53.5355 9.61694 53.5355 8.95277ZM59.9961 14.541V17.4725C59.9961 18.068 59.5027 18.5489 58.9154 18.5489C58.3281 18.5489 57.8347 18.068 57.8347 17.4725V11.8156C57.8347 11.3575 58.2106 10.9911 58.6805 10.9911C59.1503 10.9911 59.5027 11.3804 59.5027 11.8156C60.3719 11.014 61.1472 10.8995 61.8755 10.8995C64.0368 10.8995 65 12.4798 65 14.2891V17.4725C65 18.068 64.5067 18.5489 63.9194 18.5489C63.3321 18.5489 62.8387 18.068 62.8387 17.4725V14.541C62.8387 13.6249 62.7212 12.8462 61.3587 12.8462C60.3954 12.8462 59.9961 13.6249 59.9961 14.541ZM72.0009 15.6632C71.7425 15.6632 71.5781 15.5487 71.4371 15.3884L68.9234 12.7317V17.4725C68.9234 18.068 68.43 18.5489 67.8427 18.5489C67.2554 18.5489 66.762 18.068 66.762 17.4725V8.08248C66.8325 7.92216 66.9969 7.80764 67.1614 7.80764C67.3493 7.80764 67.5138 7.96797 67.6313 8.08248L71.6485 12.4797C71.766 12.6172 71.907 12.6859 72.0009 12.6859C72.0714 12.6859 72.2359 12.6172 72.3533 12.4797L76.3706 8.08248C76.4881 7.96797 76.629 7.80764 76.8405 7.80764C77.0284 7.80764 77.1929 7.92216 77.2399 8.08248V17.4725C77.2399 18.068 76.77 18.5489 76.1592 18.5489C75.5719 18.5489 75.0785 18.068 75.0785 17.4725V12.7317L72.5648 15.3884C72.3768 15.5487 72.2124 15.6632 72.0009 15.6632ZM82.3848 16.7625C83.348 16.7625 84.1703 15.9151 84.1703 14.77C84.1703 13.6249 83.3245 12.8691 82.3848 12.8691C81.4451 12.8691 80.6698 13.6478 80.6698 14.77C80.6698 15.8693 81.4216 16.7625 82.3848 16.7625ZM84.6871 17.7244L84.6401 17.4725C84.2173 18.2741 82.8782 18.6405 82.0324 18.6405C80.012 18.6405 78.5085 16.8541 78.5085 14.7242C78.5085 12.6172 80.0355 10.8766 82.1499 10.8766C82.5023 10.8766 83.7239 10.9682 84.6636 12.0446L84.7106 11.7927C84.7106 11.3346 85.063 10.9682 85.5329 10.9682C86.0027 10.9682 86.3786 11.3575 86.3786 11.7927V17.7015C86.3786 18.1596 86.0027 18.526 85.5329 18.526C85.0395 18.5489 84.6871 18.1596 84.6871 17.7244ZM92.3223 12.8462H92.0874C90.7248 12.9149 90.4664 13.6707 90.4664 14.541V17.4725C90.4664 18.068 89.973 18.5489 89.3857 18.5489C88.7984 18.5489 88.305 18.068 88.305 17.4725V11.8156C88.305 11.3575 88.6809 10.9911 89.1508 10.9911C89.6206 10.9911 89.973 11.3804 89.973 11.8156C90.7718 11.0827 91.4296 10.9224 92.0874 10.8995H92.2988C92.8157 10.8995 93.2855 11.3346 93.2855 11.8843C93.309 12.3881 92.8392 12.8462 92.3223 12.8462ZM100.662 16.9686C100.756 17.129 100.827 17.2893 100.827 17.4725C100.827 18.0222 100.31 18.526 99.7461 18.526C99.3702 18.526 99.0413 18.2512 98.7829 17.9305L96.2926 15.1135V17.4496C96.2926 18.0451 95.7993 18.526 95.2119 18.526C94.6246 18.526 94.1313 18.0451 94.1313 17.4496V8.86116C94.1313 8.2657 94.6011 7.78474 95.2119 7.78474C95.8228 7.78474 96.2926 8.2657 96.2926 8.86116V14.2203L98.7829 11.5408C99.0413 11.2659 99.3467 10.9682 99.7226 10.9682C100.263 10.9682 100.756 11.4491 100.756 11.9988C100.756 12.1591 100.709 12.3423 100.615 12.4797L98.6419 14.5868L100.662 16.9686ZM104.891 12.8691C104.304 12.8691 103.34 13.1668 103.34 14.06H106.465C106.442 13.1668 105.455 12.8691 104.891 12.8691ZM107.71 15.4113H103.34C103.34 16.6709 104.586 16.877 105.126 16.877C105.525 16.877 106.089 16.8083 106.536 16.6022C106.676 16.5106 106.888 16.4419 107.099 16.4419C107.569 16.4419 107.969 16.8312 107.969 17.3122C107.969 17.6328 107.757 17.9076 107.499 18.068C106.841 18.5489 105.972 18.6634 105.149 18.6634C102.965 18.6634 101.156 17.5183 101.156 14.8387C101.156 12.7317 102.26 10.8995 104.844 10.8995C106.935 10.8995 108.509 12.2278 108.556 14.5868C108.556 15.0219 108.18 15.4113 107.71 15.4113ZM113.724 18.6405H113.137C111.493 18.6405 110.529 17.9305 110.529 15.4342V12.8462H109.965C109.449 12.8462 109.002 12.3881 109.002 11.8843C109.002 11.3346 109.472 10.8995 109.965 10.8995H110.529V8.90697C110.529 8.3115 110.999 7.83055 111.61 7.83055C112.197 7.83055 112.691 8.3115 112.691 8.90697V10.8995H113.583C114.1 10.8995 114.547 11.3346 114.547 11.8843C114.547 12.3881 114.077 12.8462 113.583 12.8462H112.691V15.0219C112.691 16.4648 112.761 16.7625 113.419 16.7625H113.724C114.241 16.7625 114.688 17.1748 114.688 17.7015C114.688 18.2054 114.241 18.6405 113.724 18.6405ZM124.179 8.60923C124.461 8.76955 124.719 9.15889 124.719 9.50243C124.719 10.0521 124.249 10.5101 123.709 10.5101C123.568 10.5101 123.45 10.4643 123.333 10.4414C122.699 9.98338 121.9 9.68565 121.054 9.68565C119.057 9.68565 117.695 11.2659 117.695 13.2355C117.695 15.2051 119.081 16.7625 121.054 16.7625C122.041 16.7625 122.934 16.3732 123.591 15.7548C123.756 15.6403 123.967 15.5716 124.179 15.5716C124.719 15.5716 125.142 15.9838 125.142 16.5106C125.142 16.8541 124.93 17.1519 124.672 17.3122C123.709 18.1138 122.417 18.6405 121.078 18.6405C118.024 18.6405 115.533 16.19 115.533 13.1668C115.533 10.1437 118.024 7.69313 121.078 7.69313C122.205 7.67023 123.309 8.01377 124.179 8.60923ZM129.653 16.7625C130.616 16.7625 131.438 15.9151 131.438 14.77C131.438 13.6249 130.592 12.8691 129.653 12.8691C128.689 12.8691 127.938 13.6478 127.938 14.77C127.938 15.8693 128.713 16.7625 129.653 16.7625ZM131.955 17.7244L131.908 17.4725C131.485 18.2741 130.146 18.6405 129.3 18.6405C127.28 18.6405 125.776 16.8541 125.776 14.7242C125.776 12.6172 127.303 10.8766 129.418 10.8766C129.77 10.8766 130.992 10.9682 131.931 12.0446L131.978 11.7927C131.978 11.3346 132.331 10.9682 132.801 10.9682C133.27 10.9682 133.646 11.3575 133.646 11.7927V17.7015C133.646 18.1596 133.27 18.526 132.801 18.526C132.307 18.5489 131.955 18.1596 131.955 17.7244ZM139.543 16.7625C140.506 16.7625 141.258 15.8693 141.258 14.77C141.258 13.6249 140.483 12.8691 139.543 12.8691C138.58 12.8691 137.758 13.6249 137.758 14.77C137.758 15.9151 138.58 16.7625 139.543 16.7625ZM137.758 18.0222V20.7017C137.758 21.2972 137.264 21.7782 136.677 21.7782C136.09 21.7782 135.596 21.2972 135.596 20.7017V11.8156C135.596 11.3575 135.972 10.9911 136.442 10.9911C136.912 10.9911 137.264 11.3804 137.264 11.9072C138.063 11.1056 139.05 10.8995 139.801 10.8995C141.892 10.8995 143.443 12.6172 143.443 14.7471C143.443 16.8541 141.963 18.6634 139.919 18.6634C139.285 18.6405 138.345 18.4573 137.758 18.0222Z" fill="black"/>
</svg>
