<svg width="146" height="26" viewBox="0 0 146 26" fill="none" xmlns="http://www.w3.org/2000/svg">
<g clip-path="url(#clip0_1394_19648)">
<mask id="mask0_1394_19648" style="mask-type:luminance" maskUnits="userSpaceOnUse" x="1" y="0" width="145" height="26">
<path d="M145.09 0.15213H1.07764V25.0894H145.09V0.15213Z" fill="white"/>
</mask>
<g mask="url(#mask0_1394_19648)">
<path d="M125.309 7.61707H127.239V11.6113H125.309V20.851H126.95V24.7971H121.354V11.6113H119.327V7.61707H121.354V2.08291H125.309V7.61707ZM113.586 11.6113H112.331V7.61707H117.59V20.851H119.231V24.8451H111.945V20.851H113.586V11.6113ZM113.586 6.02902V2.08291H117.59V6.02902H113.586ZM2.71798 11.6113H1.07764V7.61707H6.72235V9.44578C7.78376 8.48327 10.0513 7.42456 12.8495 7.42456V11.5151C8.02496 11.6113 6.72235 13.9693 6.72235 16.183V20.851H8.31442V24.8451H1.07764V20.851H2.71798V11.6113ZM50.3844 11.6113V7.61707H45.0292V8.82017C43.6301 7.90584 42.038 7.42456 40.3012 7.42456C37.8406 7.42456 35.7661 8.29081 34.0775 10.0233C32.3889 11.7557 31.4723 13.8249 31.4723 16.2793C31.4723 18.7335 32.3406 20.8023 34.0775 22.4866C35.8143 24.2196 37.8889 25.0858 40.3012 25.0858C42.0862 25.0858 43.6301 24.6527 45.0292 23.6902V24.7971H50.3844V20.8028H49.1301V11.6113H50.3844ZM40.5906 21.3322C37.7442 21.3322 35.4766 19.0222 35.4766 16.2306C35.4766 13.3918 37.7924 11.13 40.5906 11.13C43.4371 11.13 45.6081 13.44 45.6081 16.2311C45.6081 19.0222 43.3888 21.3322 40.5906 21.3322ZM68.6214 20.851V0.15799H62.88V4.15221H64.5204V8.96455C63.073 8.00204 61.4808 7.47268 59.5993 7.47268C57.1388 7.47268 55.0642 8.33894 53.3756 10.0713C51.6871 11.8038 50.7704 13.8731 50.7704 16.2793C50.7704 18.6854 51.6388 20.8023 53.3756 22.4866C55.1125 24.2196 57.187 25.0853 59.5993 25.0853C61.4327 25.0853 63.073 24.6041 64.5204 23.5935V24.8447H70.2616V20.8505L68.6214 20.851ZM59.8888 21.3322C57.0423 21.3322 54.7748 19.0222 54.7748 16.2306C54.7748 13.3918 57.0905 11.1296 59.8888 11.1296C62.687 11.1296 64.9064 13.4395 64.9064 16.2306C64.9064 19.0222 62.687 21.3322 59.8888 21.3322ZM111.174 11.6113V7.61707C108.376 7.61707 106.156 8.48327 105.047 9.44578V7.61707H91.8273V11.6113H93.4676L88.6915 19.8885V7.6652H83.5775L76.3407 19.9366V11.6113H77.9809V7.61707H70.7442V11.6113H72.3844V24.7971H78.0776L84.7352 13.5844V24.7971H90.3317L98.0991 11.6113H101.042V20.851H99.402V24.8451H106.639V20.851H104.998V16.183C105.047 13.9693 106.301 11.7075 111.174 11.6113ZM30.1213 17.4823C30.1696 17.0973 30.2179 16.7119 30.2179 16.2793C30.2179 11.4188 26.3583 7.47268 21.5819 7.47268C16.8056 7.47268 12.946 11.4188 12.946 16.2793C12.946 21.1397 16.8056 25.0858 21.5819 25.0858C25.2968 25.0858 28.481 22.6797 29.6871 19.3591H25.5381C24.6214 20.6584 23.174 21.4766 21.5337 21.4766C19.1697 21.4766 17.2398 19.7922 16.7092 17.4823H30.1213ZM21.5337 11.082C23.6082 11.082 25.3933 12.4294 26.117 14.3062H16.9504C17.6741 12.4294 19.4591 11.082 21.5337 11.082ZM144.994 17.4823C145.042 17.0973 145.09 16.7119 145.09 16.2793C145.09 11.4188 141.23 7.47268 136.454 7.47268C131.678 7.47268 127.819 11.4188 127.819 16.2793C127.819 21.1397 131.678 25.0858 136.454 25.0858C140.169 25.0858 143.354 22.6797 144.56 19.3591H140.41C139.494 20.6584 138.047 21.4766 136.406 21.4766C134.042 21.4766 132.112 19.7922 131.582 17.4823H144.994ZM136.406 11.082C138.481 11.082 140.265 12.4294 140.989 14.3062H131.823C132.546 12.4294 134.332 11.082 136.406 11.082Z" fill="black"/>
</g>
</g>
<defs>
<clipPath id="clip0_1394_19648">
<rect width="144.636" height="25.5607" fill="white" transform="translate(0.765625)"/>
</clipPath>
</defs>
</svg>
