<svg width="137" height="23" viewBox="0 0 137 23" fill="none" xmlns="http://www.w3.org/2000/svg">
<g clip-path="url(#clip0_1394_19654)">
<path d="M60.776 0H0.401855V22.2613H60.776V0Z" fill="#F6A330"/>
<path d="M6.24874 8.46863V19.435H3.28076V8.46863H6.24874Z" fill="black"/>
<path d="M10.963 9.04757C11.7868 8.41952 12.6827 8.1055 13.6508 8.1055C14.3301 8.1055 14.9883 8.23434 15.6252 8.49201C16.2621 8.74969 16.8014 9.10795 17.243 9.56689C17.693 10.0178 18.0157 10.5572 18.2111 11.1853C18.4148 11.8133 18.5167 12.5984 18.5167 13.5404V19.4343H15.5488V13.7216C15.5488 12.4897 15.3577 11.6684 14.9756 11.2578C14.6019 10.8633 14.0881 10.666 13.4343 10.666C12.5766 10.666 11.9311 10.9196 11.4981 11.4268C11.1414 11.8455 10.963 12.687 10.963 13.951V19.4343H7.99512V8.46787H10.963V9.04757Z" fill="black"/>
<path d="M28.1354 10.7022L25.8298 11.7892C25.4901 11.3383 25.1972 11.0323 24.9509 10.8713C24.7046 10.7022 24.4116 10.6177 24.0719 10.6177C23.7068 10.6177 23.4138 10.6982 23.193 10.8592C22.9807 11.0203 22.8745 11.2336 22.8745 11.4993C22.8745 11.7408 22.951 11.918 23.1038 12.0307C23.2652 12.1434 23.6771 12.3206 24.3394 12.5621L25.3967 12.9366C26.144 13.2103 26.7427 13.5243 27.1928 13.8786C27.8806 14.418 28.2246 15.1427 28.2246 16.0526C28.2246 17.1556 27.766 18.0735 26.8488 18.8062C26.0421 19.4665 25.057 19.7966 23.8936 19.7966C22.3481 19.7966 21.1422 19.237 20.276 18.1178C19.9703 17.7233 19.6688 17.1476 19.3716 16.3907L21.7918 15.4728C22.157 16.1572 22.4882 16.6282 22.7854 16.8859C23.0911 17.1355 23.4647 17.2603 23.9064 17.2603C24.3139 17.2603 24.6409 17.1556 24.8872 16.9463C25.1334 16.7369 25.2566 16.4632 25.2566 16.125C25.2566 15.8915 25.1674 15.7104 24.9891 15.5815C24.8107 15.4446 24.4074 15.2635 23.779 15.038L22.6071 14.6153C20.8832 13.9873 20.0212 12.9728 20.0212 11.5718C20.0212 10.517 20.4501 9.65948 21.3078 8.99929C22.0976 8.40345 23.0274 8.1055 24.0974 8.1055C25.0061 8.1055 25.7788 8.31086 26.4158 8.72151C27.0611 9.13209 27.6344 9.79235 28.1354 10.7022Z" fill="black"/>
<path d="M32.1867 8.46863V19.435H29.2188V8.46863H32.1867Z" fill="black"/>
<path d="M45.3464 19.4351H42.3785V18.7346C41.3934 19.4431 40.3573 19.7974 39.2704 19.7974C37.47 19.7974 35.967 19.1573 34.7611 17.8771C33.7166 16.774 33.1943 15.4616 33.1943 13.9398C33.1943 12.1764 33.8694 10.7231 35.2196 9.57979C36.3746 8.59751 37.7248 8.1063 39.2704 8.1063C40.3573 8.1063 41.3934 8.4606 42.3785 9.16914V2.94922H45.3464V19.4351ZM39.2704 10.6668C38.2938 10.6668 37.4997 11.0371 36.8883 11.7779C36.4297 12.3415 36.2005 13.0622 36.2005 13.9398C36.2005 14.9704 36.5104 15.7836 37.1303 16.3794C37.7248 16.9511 38.4551 17.2369 39.3214 17.2369C40.3319 17.2369 41.1302 16.8666 41.7161 16.1258C42.1661 15.5461 42.3912 14.8134 42.3912 13.9277C42.3912 12.9212 42.0898 12.1161 41.4868 11.5122C40.9178 10.9486 40.179 10.6668 39.2704 10.6668Z" fill="black"/>
<path d="M49.3979 15.0018C49.5678 15.5976 49.8141 16.0606 50.1367 16.3907C50.7057 16.9624 51.4233 17.2482 52.2895 17.2482C53.3001 17.2482 54.1196 16.9463 54.748 16.3424C54.8668 16.2216 55.0621 15.964 55.3339 15.5694L57.8561 16.5598C57.2786 17.4616 56.7096 18.1259 56.1491 18.5526C55.0536 19.3819 53.7714 19.7966 52.3022 19.7966C50.4679 19.7966 48.9776 19.1565 47.8311 17.8763C46.8376 16.7732 46.3408 15.4608 46.3408 13.939C46.3408 12.9003 46.5913 11.9381 47.0924 11.0525C47.6188 10.1104 48.3491 9.37766 49.2833 8.85431C50.175 8.3551 51.1388 8.1055 52.1748 8.1055C53.8647 8.1055 55.2447 8.6772 56.3147 9.82053C57.3847 10.9559 57.9197 12.4212 57.9197 14.2168C57.9197 14.3778 57.9155 14.6395 57.907 15.0018H49.3979ZM54.9517 12.9003C54.4422 11.3625 53.5166 10.5935 52.1748 10.5935C51.4785 10.5935 50.8883 10.7948 50.4043 11.1974C49.9287 11.5919 49.5933 12.1596 49.3979 12.9003H54.9517Z" fill="black"/>
<path d="M63.6553 19.7876V3.30173H66.6233V9.5217C67.6083 8.81309 68.6444 8.45886 69.7314 8.45886C71.5317 8.45886 73.0351 9.0949 74.2407 10.3671C75.2849 11.4702 75.8073 12.7786 75.8073 14.2923C75.8073 16.0637 75.1325 17.5251 73.7822 18.6765C72.6274 19.6587 71.2771 20.1499 69.7314 20.1499C68.6444 20.1499 67.6083 19.7956 66.6233 19.0871V19.7876H63.6553ZM69.6167 11.0193C68.6486 11.0193 67.8716 11.3896 67.2856 12.1304C66.8356 12.7021 66.6105 13.4227 66.6105 14.2923C66.6105 15.3149 66.912 16.1281 67.5149 16.7319C68.0924 17.3036 68.8142 17.5895 69.6804 17.5895C70.6907 17.5895 71.5018 17.2151 72.1133 16.4663C72.5718 15.9026 72.8013 15.178 72.8013 14.2923C72.8013 13.2697 72.4911 12.4605 71.8712 11.8647C71.2855 11.3011 70.5342 11.0193 69.6167 11.0193Z" fill="black"/>
<path d="M79.77 8.82147V19.7879H76.8022V8.82147H79.77Z" fill="black"/>
<path d="M84.6118 11.3578V16.2492C84.6118 16.6599 84.65 16.9417 84.7259 17.0947C84.8114 17.2477 84.9679 17.3241 85.1975 17.3241C85.4862 17.3241 85.9405 17.2315 86.5603 17.0463V19.7155C85.9238 19.9007 85.3506 19.9933 84.8406 19.9933C83.8131 19.9933 83.0236 19.6712 82.4719 19.027C81.9195 18.3749 81.6434 17.4489 81.6434 16.2492V11.3578H80.4336V8.82154H81.6434V6.46643L84.6118 5.36737V8.82154H86.3948V11.3578H84.6118Z" fill="black"/>
<path d="M95.6942 12.5534C95.0403 11.9093 94.5311 11.4946 94.1659 11.3094C93.8006 11.1161 93.3297 11.0195 92.7523 11.0195C91.6823 11.0195 90.8496 11.3899 90.2555 12.1307C89.7971 12.6943 89.5675 13.4149 89.5675 14.2925C89.5675 15.3232 89.8778 16.1364 90.4976 16.7322C91.0834 17.3039 91.8389 17.5897 92.7648 17.5897C93.3422 17.5897 93.8514 17.473 94.2932 17.2395C94.7349 16.9979 95.2233 16.5752 95.7582 15.9713L97.7451 17.783C96.9388 18.6284 96.1485 19.2363 95.3763 19.6067C94.6034 19.969 93.7283 20.1501 92.7523 20.1501C90.858 20.1501 89.3129 19.5141 88.1156 18.2419C87.0791 17.1308 86.5615 15.8184 86.5615 14.3047C86.5615 12.5333 87.2363 11.0719 88.5866 9.92049C89.7331 8.94621 91.1216 8.45911 92.7523 8.45911C93.7032 8.45911 94.5568 8.63622 95.3123 8.99053C96.0769 9.33676 96.8623 9.92049 97.6692 10.7417L95.6942 12.5534Z" fill="black"/>
<path d="M103.542 8.45911C105.317 8.45911 106.808 9.09515 108.013 10.3673C109.058 11.4704 109.58 12.7788 109.58 14.2925C109.58 16.0639 108.905 17.5253 107.555 18.6767C106.408 19.659 105.037 20.1501 103.441 20.1501C101.58 20.1501 100.048 19.5141 98.8422 18.2419C97.8057 17.1388 97.2881 15.8103 97.2881 14.2563C97.2881 12.5252 97.9629 11.0839 99.3132 9.93253C100.46 8.95025 101.869 8.45911 103.542 8.45911ZM103.377 11.0195C102.391 11.0195 101.594 11.3899 100.982 12.1307C100.524 12.6943 100.294 13.4149 100.294 14.2925C100.294 15.3232 100.604 16.1364 101.224 16.7322C101.818 17.3039 102.557 17.5897 103.441 17.5897C104.468 17.5897 105.283 17.2153 105.886 16.4665C106.345 15.9029 106.574 15.1782 106.574 14.2925C106.574 13.27 106.264 12.4608 105.644 11.865C105.058 11.3013 104.302 11.0195 103.377 11.0195Z" fill="black"/>
<path d="M113.53 8.82147V19.7879H110.562V8.82147H113.53Z" fill="black"/>
<path d="M118.244 9.40111C119.068 8.77313 119.964 8.45911 120.932 8.45911C121.611 8.45911 122.269 8.58794 122.906 8.84555C123.543 9.10322 124.082 9.46149 124.524 9.92049C124.974 10.3714 125.297 10.9108 125.492 11.5389C125.696 12.1669 125.798 12.9519 125.798 13.894V19.7878H122.829V14.0752C122.829 12.8433 122.639 12.022 122.256 11.6113C121.883 11.2168 121.369 11.0195 120.715 11.0195C119.858 11.0195 119.212 11.2731 118.779 11.7804C118.422 12.1991 118.244 13.0405 118.244 14.3047V19.7878H115.276V8.82141H118.244V9.40111Z" fill="black"/>
<path d="M135.416 11.0558L133.111 12.1427C132.771 11.6919 132.478 11.3859 132.232 11.2249C131.985 11.0558 131.692 10.9712 131.353 10.9712C130.988 10.9712 130.695 11.0517 130.474 11.2128C130.261 11.3738 130.155 11.5872 130.155 11.8528C130.155 12.0945 130.232 12.2716 130.385 12.3843C130.546 12.497 130.958 12.6742 131.62 12.9157L132.678 13.2901C133.425 13.5638 134.024 13.8779 134.474 14.2322C135.162 14.7717 135.505 15.4963 135.505 16.4061C135.505 17.5092 135.047 18.4271 134.129 19.1598C133.323 19.82 132.338 20.1501 131.174 20.1501C129.629 20.1501 128.423 19.5905 127.557 18.4713C127.251 18.0768 126.949 17.5012 126.652 16.7443L129.073 15.8264C129.438 16.5108 129.769 16.9818 130.066 17.2395C130.372 17.4891 130.746 17.6139 131.187 17.6139C131.595 17.6139 131.922 17.5092 132.168 17.2998C132.415 17.0905 132.538 16.8168 132.538 16.4786C132.538 16.2451 132.448 16.0639 132.27 15.9351C132.092 15.7982 131.688 15.617 131.06 15.3916L129.888 14.9689C128.164 14.3408 127.302 13.3263 127.302 11.9253C127.302 10.8706 127.731 10.0131 128.588 9.35283C129.379 8.75699 130.308 8.45911 131.378 8.45911C132.287 8.45911 133.059 8.6644 133.697 9.07505C134.342 9.4857 134.915 10.1459 135.416 11.0558Z" fill="black"/>
</g>
<defs>
<clipPath id="clip0_1394_19654">
<rect width="135.655" height="22.2613" fill="white" transform="translate(0.401855)"/>
</clipPath>
</defs>
</svg>
