<svg width="140" height="30" viewBox="0 0 140 30" fill="none" xmlns="http://www.w3.org/2000/svg">
<mask id="mask0_1394_19670" style="mask-type:luminance" maskUnits="userSpaceOnUse" x="1" y="3" width="22" height="23">
<path d="M1.14355 3.70898H22.3179V25.0428H1.14355V3.70898Z" fill="white"/>
</mask>
<g mask="url(#mask0_1394_19670)">
<path d="M22.0897 15.5334C21.5027 20.6495 17.1113 24.6858 11.8141 24.6858C6.10746 24.6858 1.55664 20.0843 1.55664 14.3776C1.55664 8.67098 6.10746 4.0477 11.7779 4.0477C15.4917 4.0477 18.7816 5.96803 20.5788 8.88476L17.3613 11.2145C15.9193 9.08041 13.8757 8.02967 11.8141 8.02967C8.47345 8.02967 5.82484 10.8739 5.82484 14.3957C5.82484 17.8958 8.47345 20.7038 11.8141 20.7038C14.8178 20.7038 17.3251 18.5371 17.8939 15.5334H22.0897Z" fill="black"/>
</g>
<path d="M37.749 17.5943C37.749 21.4494 34.5135 24.6306 30.6366 24.6306C26.7633 24.6306 23.6328 21.4494 23.6328 17.5943C23.6328 13.6811 26.7633 10.5361 30.6366 10.5361C34.5135 10.5361 37.749 13.6992 37.749 17.5943ZM33.8722 17.5943C33.8722 15.692 32.4844 14.3224 30.6366 14.3224C28.8938 14.3224 27.4735 15.692 27.4735 17.5943C27.4735 19.5146 28.8938 20.8624 30.6366 20.8624C32.47 20.8624 33.8722 19.5291 33.8722 17.5943Z" fill="black"/>
<path d="M39.543 6.28972C39.543 5.22085 40.5575 4.20996 41.7278 4.20996C43.0104 4.20996 44.0032 5.20274 44.0032 6.28972C44.0032 7.46003 43.0104 8.45643 41.7278 8.45643C40.5575 8.45643 39.543 7.46003 39.543 6.28972ZM43.6662 24.3481H39.8618V10.8369H43.6662V24.3481Z" fill="black"/>
<path d="M59.9673 24.3485H56.1992V17.6128C56.1992 15.4425 54.9383 14.341 53.3911 14.341C51.7027 14.341 50.1556 15.4425 50.1556 17.6128V24.3485H46.333V10.8373H50.1374V11.7794C50.8838 10.9279 52.4672 10.5547 53.6919 10.5547C57.3912 10.5547 59.9492 13.7178 59.9492 17.6128V24.3485H59.9673Z" fill="black"/>
<path d="M63.0068 24.3477V4.40527H69.9381C74.6122 4.40527 78.2028 7.90535 78.2028 12.2424C78.2028 17.3621 74.8078 20.8803 69.5287 20.8803H67.1482V24.3296H63.0068V24.3477ZM69.4236 17.1483C72.373 17.1483 74.0252 15.3548 74.0252 12.5794C74.0252 10.1445 72.5505 8.17347 69.67 8.17347H67.1482V17.1664H69.4236V17.1483Z" fill="black"/>
<path d="M92.7436 21.8227C91.5877 23.5292 89.2073 24.6307 86.8087 24.6307C82.7361 24.6307 79.4824 21.4495 79.4824 17.5943C79.4824 13.6812 82.6129 10.5362 86.4862 10.5362C89.8305 10.5362 92.4066 12.7754 93.2255 15.3008L85.671 20.7031C86.026 20.8444 86.3992 20.8625 86.7905 20.8625C87.9464 20.8625 89.0841 20.4567 89.7036 19.4965L92.7436 21.8227ZM83.4318 18.482L88.3522 14.9819C87.8196 14.5725 87.2 14.3406 86.4862 14.3406C84.747 14.3406 83.3231 15.7102 83.3231 17.6124C83.3231 17.9132 83.3412 18.2139 83.4318 18.482Z" fill="black"/>
<path d="M108.28 4.40527V24.3477H104.475V23.3876C103.888 24.1702 102.414 24.6484 101.186 24.6484C97.4898 24.6484 94.5586 21.4672 94.5586 17.6121C94.5586 13.6989 97.5804 10.554 101.186 10.554C102.396 10.554 103.888 11.1409 104.475 11.7786V4.41977H108.28V4.40527ZM104.653 17.594C104.653 15.6917 103.338 14.3221 101.577 14.3221C99.8377 14.3221 98.4137 15.6917 98.4137 17.594C98.4137 19.5143 99.8377 20.8621 101.577 20.8621C103.338 20.8621 104.653 19.5288 104.653 17.594Z" fill="black"/>
<path d="M110.642 6.28972C110.642 5.22085 111.656 4.20996 112.83 4.20996C114.109 4.20996 115.105 5.20274 115.105 6.28972C115.105 7.46003 114.109 8.45643 112.83 8.45643C111.656 8.45643 110.642 7.46003 110.642 6.28972ZM114.768 24.3481H110.964V10.8369H114.768V24.3481Z" fill="black"/>
<path d="M130.607 10.8373V24.3485H126.802V23.3883C126.215 24.1709 124.741 24.6492 123.512 24.6492C119.817 24.6492 116.882 21.468 116.882 17.6128C116.882 13.6997 119.904 10.5547 123.512 10.5547C124.723 10.5547 126.215 11.1417 126.802 11.7794V10.8373H130.607ZM126.962 17.5947C126.962 15.6925 125.647 14.3229 123.886 14.3229C122.143 14.3229 120.722 15.6925 120.722 17.5947C120.722 19.515 122.143 20.8629 123.886 20.8629C125.647 20.8629 126.962 19.5295 126.962 17.5947Z" fill="black"/>
<path d="M132.473 20.5439H136.277V24.3484H132.473V20.5439Z" fill="#ED3A4D"/>
</svg>
